<?xml version="1.0" standalone="no"?>
<!DOCTYPE svg PUBLIC "-//W3C//DTD SVG 20010904//EN"
 "http://www.w3.org/TR/2001/REC-SVG-20010904/DTD/svg10.dtd">
<svg version="1.0" xmlns="http://www.w3.org/2000/svg"
 width="534.000000pt" height="534.000000pt" viewBox="0 0 534.000000 534.000000"
 preserveAspectRatio="xMidYMid meet">
<metadata>
Created by potrace 1.14, written by Peter Selinger 2001-2017
</metadata>
<g transform="translate(0.000000,534.000000) scale(0.100000,-0.100000)"
fill="#000000" stroke="none">
<path d="M2626 5262 c-2 -2 -32 -5 -67 -7 -238 -16 -256 -18 -334 -35 -27 -6
-59 -12 -70 -15 -11 -2 -22 -4 -25 -5 -3 -2 -8 -2 -12 -1 -3 0 -28 -6 -54 -14
-26 -8 -51 -12 -56 -9 -4 3 -8 1 -8 -3 0 -5 -8 -9 -17 -10 -10 -1 -31 -7 -48
-14 -16 -7 -36 -13 -43 -15 -39 -8 -153 -49 -194 -70 -14 -8 -33 -14 -42 -14
-9 0 -16 -4 -16 -10 0 -5 -3 -9 -7 -8 -5 0 -25 -6 -45 -16 -21 -9 -41 -16 -44
-15 -4 0 -10 -3 -13 -8 -3 -4 -24 -17 -46 -28 -68 -33 -207 -116 -273 -161
-35 -24 -65 -44 -68 -44 -3 0 -11 -6 -18 -12 -7 -7 -28 -24 -46 -38 -18 -14
-42 -34 -52 -44 -10 -11 -18 -16 -18 -10 0 5 -5 1 -11 -9 -6 -9 -14 -15 -20
-12 -5 4 -9 -1 -9 -10 0 -8 -8 -19 -17 -22 -23 -9 -179 -164 -175 -175 1 -4
-5 -8 -15 -8 -9 0 -14 -3 -11 -6 3 -3 -9 -20 -28 -38 -19 -18 -34 -38 -34 -45
0 -6 -5 -11 -10 -11 -6 0 -23 -20 -39 -45 -15 -24 -31 -42 -35 -38 -3 3 -6 1
-6 -6 0 -6 -9 -21 -20 -33 -11 -12 -20 -28 -20 -35 0 -7 -4 -13 -9 -13 -5 0
-19 -16 -31 -35 -12 -20 -29 -42 -37 -50 -8 -8 -11 -15 -6 -15 4 0 3 -4 -2 -8
-15 -10 -67 -92 -59 -92 4 0 0 -8 -8 -17 -24 -29 -70 -113 -61 -113 4 0 3 -4
-3 -8 -6 -4 -21 -29 -33 -57 -12 -27 -26 -58 -32 -69 -6 -10 -12 -26 -14 -35
-2 -9 -15 -47 -30 -86 -15 -38 -29 -77 -31 -85 -2 -8 -10 -36 -18 -62 -8 -27
-12 -48 -9 -48 3 0 -1 -7 -8 -17 -8 -9 -12 -18 -11 -20 4 -4 -12 -98 -18 -105
-7 -10 -21 -88 -34 -198 -8 -67 -12 -189 -10 -335 3 -237 7 -295 28 -415 3
-19 8 -48 10 -65 3 -16 8 -43 11 -60 4 -16 8 -39 9 -50 1 -12 5 -25 8 -30 3
-6 11 -32 17 -60 7 -27 15 -57 19 -65 3 -8 7 -25 9 -37 2 -12 11 -39 20 -60 9
-21 18 -41 19 -45 1 -5 3 -10 4 -13 1 -3 3 -9 4 -14 0 -5 4 -13 8 -17 5 -4 8
-16 8 -26 0 -10 4 -18 10 -18 5 0 9 -3 9 -7 -1 -5 0 -11 1 -15 1 -5 3 -11 4
-15 2 -10 51 -115 79 -168 35 -67 42 -80 48 -85 3 -3 12 -20 20 -38 8 -17 17
-32 21 -32 5 0 8 -7 8 -15 0 -8 3 -15 8 -15 4 0 13 -13 20 -29 7 -16 24 -41
37 -55 14 -15 25 -30 25 -34 0 -4 10 -17 20 -29 11 -13 17 -23 13 -23 -3 0 4
-8 15 -19 12 -10 22 -21 22 -25 0 -7 26 -40 58 -73 12 -13 22 -26 22 -29 0 -2
27 -32 60 -66 33 -33 60 -65 60 -69 0 -5 4 -9 9 -9 4 0 39 -29 76 -65 37 -35
72 -62 76 -59 5 3 9 1 9 -5 0 -9 123 -107 186 -148 11 -7 49 -33 86 -58 38
-25 68 -42 68 -38 0 4 4 3 8 -3 8 -11 30 -24 163 -90 48 -24 98 -46 113 -50
14 -3 26 -10 26 -15 0 -5 10 -9 23 -9 13 0 27 -4 33 -8 5 -5 29 -15 54 -22 25
-8 50 -17 55 -20 6 -4 21 -10 35 -13 14 -3 41 -10 60 -15 116 -33 160 -44 233
-57 45 -8 94 -17 109 -20 193 -38 575 -38 803 0 178 30 405 86 431 107 7 5 16
8 20 6 5 -1 36 8 69 21 33 13 65 24 70 25 6 1 30 12 55 23 25 11 55 24 68 27
12 4 22 12 22 17 0 6 4 8 9 4 5 -3 12 -1 16 5 4 6 10 8 15 5 5 -3 11 -1 15 4
3 6 27 20 53 33 26 13 53 28 60 35 6 6 21 15 32 18 11 3 20 11 20 16 0 6 4 8
9 5 5 -4 11 -3 13 1 5 12 66 53 78 53 5 0 10 4 10 8 0 4 12 15 27 24 16 9 38
25 51 35 50 41 80 64 136 108 32 25 56 45 52 45 -3 0 3 9 14 20 11 11 23 20
27 20 16 0 216 219 288 315 16 22 35 46 41 53 7 6 16 21 19 32 3 11 10 20 15
20 5 0 12 10 16 22 3 12 10 26 15 32 19 23 58 86 54 86 -3 0 6 18 20 40 14 22
22 40 18 40 -5 0 -3 4 3 8 9 6 47 80 87 172 9 19 13 38 11 42 -3 4 -1 8 5 8 5
0 15 17 22 38 6 20 16 46 22 57 6 11 12 25 13 30 1 6 13 46 27 90 23 71 37
126 53 205 18 92 34 181 38 220 3 25 9 74 13 110 16 130 8 520 -11 620 -3 14
-7 46 -10 71 -3 26 -8 53 -11 60 -4 14 -10 43 -21 104 -3 17 -11 36 -16 43 -6
6 -8 12 -5 12 2 0 -6 37 -20 83 -14 45 -25 88 -26 95 0 6 -4 12 -9 12 -4 0 -8
9 -8 20 0 11 -4 28 -9 38 -5 9 -13 28 -19 42 -21 52 -135 285 -142 290 -4 3
-17 23 -28 45 -11 22 -31 51 -44 65 -12 13 -21 25 -18 25 8 0 -67 107 -102
146 -10 10 -18 22 -18 25 0 4 -13 21 -29 38 -87 92 -111 118 -111 123 0 10
-152 153 -162 153 -5 0 -6 5 -3 10 3 6 3 10 -2 10 -4 0 -21 12 -38 26 -16 14
-47 40 -69 57 -21 18 -44 38 -51 45 -8 6 -19 12 -25 12 -6 0 -8 5 -5 10 3 6 0
10 -8 10 -7 0 -23 9 -35 20 -12 11 -26 20 -32 20 -5 0 -10 5 -10 10 0 6 -7 10
-15 10 -8 0 -15 5 -15 10 0 6 -7 10 -15 10 -8 0 -15 5 -15 10 0 6 -4 10 -10
10 -5 0 -34 16 -64 35 -29 19 -56 31 -60 28 -3 -4 -6 -2 -6 4 0 10 -218 123
-236 123 -4 0 -15 6 -23 13 -9 7 -32 18 -51 24 -19 6 -60 21 -90 33 -30 12
-62 23 -70 24 -9 1 -20 5 -25 8 -6 3 -26 9 -45 13 -19 4 -39 10 -45 13 -10 7
-37 12 -72 15 -13 1 -23 5 -23 8 0 6 -10 8 -55 11 -14 1 -25 5 -25 9 0 3 -10
5 -22 5 -13 -1 -27 0 -33 3 -10 6 -18 7 -75 16 -33 5 -73 8 -255 20 -38 3 -85
6 -103 8 -18 1 -35 1 -36 -1z"/>
</g>
</svg>
